# xmcd
# 
# Track frame offsets:
#     182
#     21480
#     46555
#     69967
#     91250
#     116935
#     139567
#     164655
#     190185
#     213405
#     237552
#     258195
# 
# Disc length: 3784
# 
# Revision: 2
# Processed by: cddbd v1.5.2PL0 Copyright (c) Steve Scherf et al.
# Submitted via: BonkEnc v1.0.8
# 
DISCID=a60ec60c
DTITLE=Jason Miles - Mr. X
DYEAR=1996
DGENRE=Fusion
TTITLE0=Memphis 2000
TTITLE1=Mr. X
TTITLE2=7 Digits
TTITLE3=Topanga Tango
TTITLE4=Beneath the Moon and Sky
TTITLE5=Chude
TTITLE6=Secret Room
TTITLE7=Phone Sex
TTITLE8=Chicken and Waffles
TTITLE9=Confins
TTITLE10=Prophecy
TTITLE11=Cara's Theme
EXTD=Guests include Herbie Mann, Michael Brecker, Grover Washington Jr., Dave Koz and others
EXTT0=
EXTT1=
EXTT2=
EXTT3=
EXTT4=
EXTT5=
EXTT6=
EXTT7=
EXTT8=
EXTT9=
EXTT10=
EXTT11=
PLAYORDER=
